<svg xmlns="http://www.w3.org/2000/svg" viewBox="0 0 16 16">
  <path d="M8.42 8.52a.75.75 0 0 1 .36.2l1.5 1.5c.124.123.192.28.211.441l.002.026a.8.8 0 0 1-.033.296q-.008.029-.019.056a.76.76 0 0 1-.278.337.75.75 0 0 1-.943-.096L9 11.06V12c0 .412.121.734.29.937.155.188.38.313.71.313q.154 0 .29.058l.054.029a.8.8 0 0 1 .181.128l.005.005q.024.025.044.053.024.025.044.053.071.107.105.234l.006.024a.75.75 0 0 1-.73.916 2.38 2.38 0 0 1-1.69-.667l-.007-.007a2 2 0 0 1-.17-.183c-.376-.456-.578-1.033-.622-1.634A4 4 0 0 1 7.5 12v-.94l-.22.22a.75.75 0 0 1-1.217-.232q-.01-.023-.018-.048a.8.8 0 0 1-.041-.292q.001-.03.005-.06a.75.75 0 0 1 .21-.428l.539-.54.962-.96.056-.052a.75.75 0 0 1 .644-.148M11 8.25l.144.004a3 3 0 0 1 .329.038l.016.004a2.5 2.5 0 0 1 .491.15q.065.027.125.057.037.018.072.038.07.037.136.078l.064.045q.275.186.49.443a2.6 2.6 0 0 1 .488.92q.03.096.054.193l.009.044q.02.084.034.17.008.04.013.079a3 3 0 0 1 .033.436L13.5 11v.94l.22-.22.03-.029a.75.75 0 0 1 1.03 1.09l-1.5 1.5a.75.75 0 0 1-1.06 0l-1.5-1.5-.052-.057a.75.75 0 0 1-.154-.618.745.745 0 0 1 .592-.592.75.75 0 0 1 .674.206l.22.22V11c0-.286-.06-.528-.151-.717a1 1 0 0 0-.138-.22c-.156-.188-.381-.313-.711-.313a.75.75 0 0 1-.734-.599l-.002-.011A.747.747 0 0 1 11 8.25M2.25 9.507c.357.223.786.417 1.255.58.458.16.97.295 1.516.403a1.746 1.746 0 0 0 1.508 1.994c.066.603.259 1.206.608 1.737-1.22-.073-2.382-.29-3.283-.603-.557-.194-.986-.413-1.265-.633-.287-.226-.339-.39-.339-.471zM13.75 8l-.014.076a.7.7 0 0 1-.197.281C12.91 7.66 12.016 7.25 11 7.25c-.618 0-1.16.321-1.472.805l-.04-.042a1.75 1.75 0 0 0-2.343-.12l-.023.018-.02.019-.057.051-.017.016L5.507 9.52a11 11 0 0 1-1.653-.415c-.557-.193-.986-.413-1.265-.633-.287-.226-.339-.39-.339-.471V4.993c.357.224.786.417 1.255.58 1.24.431 2.869.69 4.494.69s3.255-.259 4.495-.69a6.3 6.3 0 0 0 1.256-.58zM7.999 1.75c1.526 0 3.035.246 4.146.632.557.194.987.413 1.265.633.287.226.34.39.34.471 0 .082-.054.245-.34.471-.278.22-.708.439-1.265.633-1.11.386-2.62.632-4.146.632s-3.034-.246-4.145-.632c-.557-.194-.986-.413-1.265-.633-.286-.226-.339-.389-.339-.47 0-.083.052-.246.339-.472.279-.22.708-.44 1.265-.633C4.964 1.996 6.474 1.75 8 1.75"/>
</svg>
