<svg xmlns="http://www.w3.org/2000/svg" viewBox="0 0 16 16">
  <path d="M8.138 2.25a1.1 1.1 0 0 1 1.097 1.096c0 .413-.274 1.1-.823 1.095l-.056.005a.275.275 0 0 0 0 .537l.056.006h.823a1.1 1.1 0 0 1 1.098 1.096 1.095 1.095 0 0 1-.99 1.09l-.108.006h-.274a.274.274 0 1 0 0 .548h4.441a1.097 1.097 0 1 1 0 2.191H5.667a.274.274 0 0 0-.146.507l2.06 1.278.006.005c.25.146.433.385.507.664a1.095 1.095 0 0 1-.775 1.338 1.1 1.1 0 0 1-.733-.056l-.098-.05c-2.277-1.29-3.641-2.11-4.447-2.971C1.264 9.805 1 8.925 1 7.455a5.2 5.2 0 0 1 3.22-4.81 5.2 5.2 0 0 1 1.996-.395z"/>
</svg>
