<svg xmlns="http://www.w3.org/2000/svg" viewBox="0 0 16 16">
  <path d="M7.402 2.75c-.162.47-.252.975-.252 1.5H4.618a.25.25 0 0 0-.223.139L2.964 7.25H4.75A.75.75 0 0 1 5.5 8v1.25h5v-.574a4.6 4.6 0 0 0 1.5.165V10a.75.75 0 0 1-.75.75h-6.5A.75.75 0 0 1 4 10V8.75H2.5v3.5h11v-3.5h-.8a4.6 4.6 0 0 0 2.192-1.144l.029.059A.75.75 0 0 1 15 8v5a.75.75 0 0 1-.75.75H1.75A.75.75 0 0 1 1 13V8a.75.75 0 0 1 .08-.335l1.973-3.947a1.75 1.75 0 0 1 1.565-.968zM11.75.65a3.6 3.6 0 0 1 3.003 5.584l-.008.012A3.6 3.6 0 1 1 11.75.65M9.354 4.353a2.396 2.396 0 0 0 2.002 2.261l-.22-.226-.01-.01a.85.85 0 0 1-.152-.924l.02-.047a.85.85 0 0 1-.536-.447v-.001l-.049-.102-.367-.097-.017-.003-.088-.015a1.4 1.4 0 0 1-.22-.058.7.7 0 0 1-.182-.112.9.9 0 0 1-.18-.22m2.811 1.373.45.462.008.008q.091.1.148.223c.245-.116.47-.27.66-.458l-.712-.696-.328-.044zm1.129-3.311a.85.85 0 0 1-.222.332v.001l-.842.76h-.002a.8.8 0 0 1-.159.113l.001.001-.383.212-.002-.001a.85.85 0 0 1-.409.105l-.043.001q.08.075.14.166l.046.085v.001l.03.061.108.008q.09-.098.208-.163l.124-.057a.9.9 0 0 1 .266-.05l.137.007.713.096a1 1 0 0 1 .252.075l.078.042.056.039.05.044.618.603a2.39 2.39 0 0 0-.765-2.481M11.75 1.85c-.84 0-1.58.433-2.009 1.088l.241.29.023-.041.013-.023a.85.85 0 0 1 .736-.425h.431l.27-.148.653-.592-.022-.123a2.4 2.4 0 0 0-.336-.026"/>
</svg>
